<svg width="150" height="150" viewBox="0 0 150 150" fill="none" xmlns="http://www.w3.org/2000/svg">
<mask id="mask0_9357_1251" style="mask-type:luminance" maskUnits="userSpaceOnUse" x="0" y="0" width="150" height="150">
<path d="M149.041 32.118L33.3462 0.261719L0.959019 117.884L116.653 149.741L149.041 32.118Z" fill="white"/>
</mask>
<g mask="url(#mask0_9357_1251)">
<path d="M68.262 135.452L51.7278 119.58L53.327 113.82L69.8613 129.692L68.262 135.452Z" fill="#D79E0F"/>
<mask id="mask1_9357_1251" style="mask-type:luminance" maskUnits="userSpaceOnUse" x="63" y="71" width="35" height="32">
<path d="M78.9989 71.5303L95.5332 87.4023C97.9425 89.7154 98.549 92.7709 95.6783 97.1772C92.8603 101.559 89.3601 102.708 85.2119 102.165C83.6189 101.955 81.9227 101.501 80.1354 100.878L63.6011 85.0063C65.3901 85.6228 67.0847 86.0829 68.6776 86.2933C72.8319 86.8373 76.3321 85.6885 79.144 81.3052C82.0131 76.9049 81.4083 73.8434 79.005 71.532L78.9989 71.5303Z" fill="white"/>
</mask>
<g mask="url(#mask1_9357_1251)">
<path d="M80.1371 100.88L63.6028 85.0078C65.3918 85.6243 67.0863 86.0844 68.6793 86.2948C69.9561 86.4638 71.1677 86.4649 72.3209 86.2738L88.8552 102.146C87.7003 102.343 86.4904 102.336 85.2136 102.167C83.6206 101.956 81.9244 101.502 80.1371 100.88Z" fill="black"/>
<path d="M88.8478 102.142L72.3135 86.2699C72.8087 86.1845 73.294 86.0638 73.7649 85.9001L90.2991 101.772C89.8282 101.936 89.343 102.057 88.8478 102.142Z" fill="black"/>
<path d="M90.3002 101.775L73.7659 85.9028C74.1133 85.7833 74.4535 85.6422 74.7882 85.4736L91.3225 101.346C90.9878 101.514 90.6476 101.655 90.3002 101.775Z" fill="black"/>
<path d="M91.3214 101.346L74.7871 85.4743C75.0847 85.3215 75.3795 85.1549 75.6732 84.9685L92.2075 100.84C91.9198 101.029 91.625 101.195 91.3214 101.346Z" fill="black"/>
<path d="M92.2015 100.838L75.6672 84.9662C75.9609 84.7798 76.2492 84.5657 76.5285 84.3362L93.0628 100.208C92.7834 100.438 92.4952 100.652 92.2015 100.838Z" fill="black"/>
<path d="M93.0607 100.206L76.5264 84.3337C76.8479 84.0701 77.1562 83.7833 77.4606 83.4629L93.9949 99.3349C93.6905 99.6553 93.3745 99.9465 93.0607 100.206Z" fill="black"/>
<path d="M94.0038 99.3318L77.4695 83.4598C77.8837 83.0261 78.2852 82.5433 78.6713 81.9976L95.2056 97.8696C94.8134 98.4137 94.418 98.8981 94.0038 99.3318Z" fill="black"/>
<path d="M95.2059 97.8741L78.6716 82.0021C78.8314 81.7788 78.9867 81.5477 79.1454 81.3045C82.0144 76.9043 81.4096 73.8426 79.0063 71.5312L95.5406 87.4034C97.95 89.7164 98.5565 92.7719 95.6797 97.1765C95.521 97.4197 95.3656 97.6508 95.2059 97.8741Z" fill="black"/>
</g>
<mask id="mask2_9357_1251" style="mask-type:luminance" maskUnits="userSpaceOnUse" x="78" y="65" width="24" height="22">
<path d="M94.7836 86.7464L78.2493 70.8743C81.003 70.6284 83.472 69.0848 84.9782 65.5417L101.512 81.4137C100.006 84.9568 97.5372 86.5004 94.7836 86.7464Z" fill="white"/>
</mask>
<g mask="url(#mask2_9357_1251)">
<path d="M94.7848 86.7455L78.2505 70.8735C78.4732 70.85 78.6958 70.8266 78.9157 70.7893L95.45 86.6613C95.2301 86.6986 95.0058 86.7281 94.7848 86.7455Z" fill="black"/>
<path d="M95.4497 86.6633L78.9155 70.7913C79.3275 70.7222 79.7358 70.6195 80.1341 70.4814L96.6684 86.3534C96.2701 86.4915 95.8618 86.5942 95.4497 86.6633Z" fill="black"/>
<path d="M96.6678 86.3512L80.1335 70.4792C80.4238 70.3765 80.7053 70.2584 80.984 70.1265L97.5182 85.9985C97.2439 86.1382 96.9564 86.2546 96.6678 86.3512Z" fill="black"/>
<path d="M97.516 85.9921L80.9817 70.1201C81.225 69.998 81.4577 69.8665 81.6894 69.7151L98.2237 85.5871C97.992 85.7385 97.7592 85.87 97.516 85.9921Z" fill="black"/>
<path d="M98.222 85.5919L81.6877 69.7199C81.9116 69.5729 82.1328 69.4121 82.3451 69.2358L98.8793 85.1078C98.667 85.2841 98.4459 85.4449 98.222 85.5919Z" fill="black"/>
<path d="M98.8767 85.1079L82.3425 69.2359C82.572 69.0448 82.7987 68.8399 83.0122 68.6118L99.5465 84.4838C99.3269 84.7102 99.1062 84.9168 98.8767 85.1079Z" fill="black"/>
<path d="M99.5546 84.4882L83.0203 68.6162C83.2948 68.3332 83.5593 68.0148 83.8062 67.6655L100.34 83.5375C100.093 83.8868 99.8307 84.1991 99.5546 84.4882Z" fill="black"/>
<path d="M100.338 83.5372L83.8042 67.6652C84.2408 67.0551 84.6304 66.3539 84.9764 65.5493L101.511 81.4213C101.165 82.2259 100.773 82.9332 100.338 83.5372Z" fill="black"/>
</g>
<path d="M76.6071 107.475L60.0728 91.6029L63.5997 85.0039L80.134 100.876L76.6071 107.475Z" fill="black"/>
<path d="M72.9625 105.911L56.4282 90.0391L60.0723 91.6032L76.6066 107.475L72.9625 105.911Z" fill="black"/>
<mask id="mask3_9357_1251" style="mask-type:luminance" maskUnits="userSpaceOnUse" x="83" y="57" width="20" height="25">
<path d="M83.4243 57.7188L99.9586 73.5906C102.068 75.6125 102.942 78.1026 101.505 81.417L84.9707 65.545C86.4013 62.2289 85.5339 59.7406 83.4243 57.7188Z" fill="white"/>
</mask>
<g mask="url(#mask3_9357_1251)">
<path d="M101.513 81.417L84.9785 65.545C86.4092 62.2289 85.5417 59.7406 83.4321 57.7188L99.9664 73.5906C102.076 75.6125 102.95 78.1026 101.513 81.417Z" fill="black"/>
</g>
<path d="M70.0326 104.68L53.4983 88.8076L56.9901 82.3359L73.5244 98.2079L70.0326 104.68Z" fill="black"/>
<mask id="mask4_9357_1251" style="mask-type:luminance" maskUnits="userSpaceOnUse" x="56" y="82" width="21" height="18">
<path d="M73.525 98.2079L56.9907 82.3359C57.9798 82.7648 58.9107 83.1906 59.9165 83.5588L76.4507 99.4308C75.445 99.0626 74.5141 98.6368 73.525 98.2079Z" fill="white"/>
</mask>
<g mask="url(#mask4_9357_1251)">
<path d="M73.525 98.2079L56.9907 82.3359C57.9798 82.7648 58.9107 83.1906 59.9165 83.5588L76.4507 99.4308C75.445 99.0626 74.5141 98.6368 73.525 98.2079Z" fill="black"/>
</g>
<path d="M66.3141 103.181L49.7798 87.3086L53.5004 88.809L70.0347 104.681L66.3141 103.181Z" fill="black"/>
<mask id="mask5_9357_1251" style="mask-type:luminance" maskUnits="userSpaceOnUse" x="64" y="68" width="24" height="21">
<path d="M71.3908 72.5165L87.925 88.3885C85.9145 86.4591 82.3374 85.3177 80.8336 84.6884L64.2993 68.8164C65.8092 69.4473 69.3802 70.5871 71.3908 72.5165Z" fill="white"/>
</mask>
<g mask="url(#mask5_9357_1251)">
<path d="M80.8258 84.6884L64.2915 68.8164C65.3614 69.261 67.4671 69.9646 69.3226 71.0298L85.8568 86.9018C83.9997 85.8427 81.894 85.139 80.8258 84.6884Z" fill="black"/>
<path d="M85.857 86.8954L69.3228 71.0234C69.9791 71.3998 70.6038 71.8195 71.1414 72.2936L87.6757 88.1656C87.138 87.6915 86.5133 87.2718 85.857 86.8954Z" fill="black"/>
<path d="M87.6773 88.165L71.1431 72.293C71.2271 72.3683 71.3051 72.4419 71.3831 72.5156L87.9174 88.3876C87.8394 88.3139 87.7553 88.2386 87.6773 88.165Z" fill="#899E90"/>
</g>
<path d="M76.1359 93.4178L59.6016 77.5458L64.2918 68.8154L80.8261 84.6874L76.1359 93.4178Z" fill="black"/>
<path d="M80.8252 84.689C83.3397 85.74 91.5773 88.2038 88.7949 93.3842C87.591 95.6152 85.377 96.0423 83.0875 95.7445C80.349 95.3882 77.496 93.9962 76.135 93.4193L80.833 84.6846L80.8252 84.689Z" fill="#F4BE38"/>
<path d="M96.1822 70.9534L79.6479 55.0814L83.1581 48.543L99.6924 64.415L96.1822 70.9534Z" fill="black"/>
<mask id="mask6_9357_1251" style="mask-type:luminance" maskUnits="userSpaceOnUse" x="50" y="79" width="20" height="18">
<path d="M67.2281 95.4579L50.6938 79.5859C51.5833 79.9482 52.4655 80.3607 53.2985 80.7139L69.8328 96.5859C68.9937 96.231 68.1176 95.8202 67.2281 95.4579Z" fill="white"/>
</mask>
<g mask="url(#mask6_9357_1251)">
<path d="M67.2281 95.4579L50.6938 79.5859C51.5833 79.9482 52.4655 80.3607 53.2985 80.7139L69.8328 96.5859C68.9937 96.231 68.1176 95.8202 67.2281 95.4579Z" fill="black"/>
</g>
<path d="M87.2332 72.7395C89.3226 73.6213 96.2217 75.6644 93.7034 80.3372C92.57 82.4311 90.5942 82.826 88.6026 82.5645C86.3575 82.2723 84.0928 81.1467 82.988 80.686L87.2348 72.7334L87.2332 72.7395Z" fill="#F4BE38"/>
<path d="M82.9888 80.6887L66.4546 64.8167L70.6997 56.8701L87.2339 72.7421L82.9888 80.6887Z" fill="black"/>
<mask id="mask7_9357_1251" style="mask-type:luminance" maskUnits="userSpaceOnUse" x="70" y="56" width="23" height="20">
<path d="M76.4449 59.8917L92.9792 75.7637C91.3104 74.1632 88.4557 73.2533 87.2281 72.7392L70.6938 56.8672C71.9154 57.3796 74.7762 58.2912 76.4449 59.8917Z" fill="white"/>
</mask>
<g mask="url(#mask7_9357_1251)">
<path d="M87.2359 72.7392L70.7017 56.8672C71.559 57.2271 73.2329 57.7859 74.7254 58.6467L91.2597 74.5187C89.7655 73.6639 88.0916 73.1052 87.2359 72.7392Z" fill="black"/>
<path d="M91.2633 74.5126L74.729 58.6406C75.2719 58.9531 75.797 59.3063 76.2506 59.7051L92.7848 75.5771C92.3312 75.1783 91.8122 74.8268 91.2633 74.5126Z" fill="black"/>
<path d="M92.7828 75.579L76.2485 59.707C76.3177 59.7652 76.3852 59.8294 76.4526 59.8936L92.9869 75.7656C92.9194 75.7014 92.852 75.6372 92.7828 75.579Z" fill="black"/>
</g>
<path d="M115.363 41.5529L98.8284 25.6809L128.828 29.5988L145.362 45.4708L115.363 41.5529Z" fill="#D79E0F"/>
<path d="M62.4742 93.4501L45.9399 77.5781L50.6938 79.5848L67.2281 95.4568L62.4742 93.4501Z" fill="black"/>
<path d="M89.6403 68.0508L73.106 52.1788L76.5096 45.8132L93.0456 61.6791L89.6403 68.0508Z" fill="black"/>
<mask id="mask8_9357_1251" style="mask-type:luminance" maskUnits="userSpaceOnUse" x="62" y="53" width="18" height="17">
<path d="M63.1908 53.6084L79.7251 69.4804C79.5077 69.2706 79.2178 69.0864 78.8414 68.9306L62.3071 53.0586C62.6835 53.2144 62.9735 53.3986 63.1908 53.6084Z" fill="white"/>
</mask>
<g mask="url(#mask8_9357_1251)">
<path d="M78.8414 68.9306L62.3071 53.0586C62.4544 53.1187 62.5938 53.1832 62.7117 53.2548L79.246 69.1268C79.122 69.0535 78.9886 68.9907 78.8414 68.9306Z" fill="black"/>
<path d="M79.2476 69.1259L62.7134 53.2539C62.8722 53.3433 63.0094 53.4397 63.125 53.5433L79.6593 69.4153C79.5437 69.3117 79.4065 69.2153 79.2476 69.1259Z" fill="black"/>
<path d="M79.6578 69.415L63.1235 53.543C63.1235 53.543 63.1656 53.5806 63.1927 53.6011L79.727 69.4731C79.727 69.4731 79.6849 69.4355 79.6578 69.415Z" fill="#899E90"/>
</g>
<mask id="mask9_9357_1251" style="mask-type:luminance" maskUnits="userSpaceOnUse" x="59" y="51" width="20" height="18">
<path d="M62.3032 53.0512L78.8374 68.9232C78.734 68.823 76.3141 67.8568 76.1851 67.8017L59.6509 51.9297C59.7815 51.9787 62.1997 52.951 62.3032 53.0512Z" fill="white"/>
</mask>
<g mask="url(#mask9_9357_1251)">
<path d="M76.1851 67.8017L59.6509 51.9297C59.7754 51.977 61.9341 52.8453 62.2639 53.0274L78.7981 68.8994C78.4683 68.7173 76.3019 67.8534 76.1851 67.8017Z" fill="black"/>
<path d="M78.7984 68.8993L62.2642 53.0273L62.2913 53.0479L78.8272 68.9138L78.7984 68.8993Z" fill="#8DA395"/>
<path d="M78.8274 68.9128L62.2915 53.0469L62.2976 53.0486L78.8319 68.9206L78.8274 68.9128Z" fill="#899E90"/>
<path d="M78.8297 68.9228L62.2954 53.0508L62.3015 53.0525L78.8358 68.9245L78.8297 68.9228Z" fill="black"/>
</g>
<path d="M43.6198 39.495L27.0854 23.623L34.9589 24.6499L51.493 40.5219L43.6198 39.495Z" fill="#D79E0F"/>
<path d="M20.3924 123.235L3.85815 107.363L27.0865 23.6216L43.6208 39.4936L20.3924 123.235Z" fill="#F4BE38"/>
<path d="M51.494 40.5219L34.9597 24.6499L38.8219 10.7427L55.3561 26.6147L51.494 40.5219Z" fill="#D79E0F"/>
<path d="M55.3536 26.614L38.8193 10.7419L100.731 18.8173L117.266 34.6893L55.3536 26.614Z" fill="#F4BE38"/>
<path d="M115.362 41.5535L145.37 45.467L120.334 135.726L111.272 134.542L109.529 140.824L68.2716 135.443L69.8709 129.682L20.3992 123.226L43.6276 39.4846L51.507 40.5132L55.3631 26.6042L117.275 34.6795L115.372 41.5431L115.362 41.5535ZM101.51 81.419C103.635 76.5075 100.695 73.4094 96.1887 70.9558L99.6989 64.4174L95.9755 62.9031L92.593 69.2159C91.6454 68.8506 90.6563 68.4218 89.6462 68.0458L93.0498 61.6802L89.3979 60.1205L85.8939 66.6606C85.1112 66.3147 84.318 66.031 83.5415 65.6868L78.4682 63.5792L76.1914 67.8034C76.3265 67.8602 78.8648 68.8721 78.8481 68.9327C80.3736 69.5548 80.4546 70.7117 80.0599 71.5028L76.0563 79.0007L70.4957 89.3693C70.2288 89.7913 69.6799 90.3574 68.8826 90.2552C68.7375 90.2349 68.5853 90.193 68.4258 90.1295C68.2548 90.1085 65.8842 89.058 65.763 88.9986L62.4853 93.4558L67.233 95.4607C68.1225 95.823 69.0047 96.2354 69.8377 96.5887L66.3186 103.183L70.0375 104.69L73.5294 98.2181C74.5184 98.6469 75.4493 99.0728 76.4551 99.441L72.9677 105.92L76.6135 107.479L80.1387 100.886C81.9277 101.502 83.6222 101.962 85.2152 102.173C89.3695 102.717 92.8696 101.568 95.6816 97.1844C98.833 92.3534 97.7981 89.1408 94.7852 86.7593C97.5372 86.5195 100.008 84.9698 101.514 81.4267" fill="#F4BE38"/>
</g>
</svg>
