<svg width="48" height="48" viewBox="0 0 48 48" fill="none" xmlns="http://www.w3.org/2000/svg">
<rect width="48" height="48" rx="24" fill="#F5BE37"/>
<path d="M14.8989 27.6289C14.4669 27.6289 14.0739 27.5329 13.7199 27.3409C13.3719 27.1429 13.0929 26.8579 12.8829 26.4859C12.6789 26.1079 12.5769 25.6489 12.5769 25.1089V23.5969C12.5769 22.7869 12.8049 22.1659 13.2609 21.7339C13.7169 21.2959 14.3349 21.0769 15.1149 21.0769C15.8889 21.0769 16.4859 21.2839 16.9059 21.6979C17.3319 22.1059 17.5449 22.6609 17.5449 23.3629V23.3989H16.3749V23.3269C16.3749 23.1049 16.3269 22.9039 16.2309 22.7239C16.1409 22.5439 16.0029 22.4029 15.8169 22.3009C15.6309 22.1929 15.3969 22.1389 15.1149 22.1389C14.6949 22.1389 14.3649 22.2679 14.1249 22.5259C13.8849 22.7839 13.7649 23.1349 13.7649 23.5789V25.1269C13.7649 25.5649 13.8849 25.9189 14.1249 26.1889C14.3649 26.4529 14.7009 26.5849 15.1329 26.5849C15.5649 26.5849 15.8799 26.4709 16.0779 26.2429C16.2759 26.0149 16.3749 25.7269 16.3749 25.3789V25.2889H14.8809V24.2809H17.5449V27.5029H16.4469V26.8999H16.2849C16.2429 27.0019 16.1739 27.1099 16.0779 27.2239C15.9879 27.3379 15.8499 27.4339 15.6639 27.5119C15.4779 27.5899 15.2229 27.6289 14.8989 27.6289ZM18.7248 27.5029V26.4589H19.5528V22.2469H18.7248V21.2029H21.3168C22.1628 21.2029 22.8048 21.4189 23.2428 21.8509C23.6868 22.2769 23.9088 22.9129 23.9088 23.7589V24.9469C23.9088 25.7929 23.6868 26.4319 23.2428 26.8639C22.8048 27.2899 22.1628 27.5029 21.3168 27.5029H18.7248ZM20.7408 26.4229H21.3348C21.8148 26.4229 22.1658 26.2969 22.3878 26.0449C22.6098 25.7929 22.7208 25.4389 22.7208 24.9829V23.7229C22.7208 23.2609 22.6098 22.9069 22.3878 22.6609C22.1658 22.4089 21.8148 22.2829 21.3348 22.2829H20.7408V26.4229ZM25.124 27.5029V21.2029H27.716C28.112 21.2029 28.46 21.2839 28.76 21.4459C29.066 21.6019 29.303 21.8239 29.471 22.1119C29.645 22.3999 29.732 22.7419 29.732 23.1379V23.2639C29.732 23.6539 29.642 23.9959 29.462 24.2899C29.288 24.5779 29.048 24.8029 28.742 24.9649C28.442 25.1209 28.1 25.1989 27.716 25.1989H26.312V27.5029H25.124ZM26.312 24.1189H27.599C27.881 24.1189 28.109 24.0409 28.283 23.8849C28.457 23.7289 28.544 23.5159 28.544 23.2459V23.1559C28.544 22.8859 28.457 22.6729 28.283 22.5169C28.109 22.3609 27.881 22.2829 27.599 22.2829H26.312V24.1189ZM30.7806 27.5029V21.2029H33.5166C33.9126 21.2029 34.2576 21.2719 34.5516 21.4099C34.8456 21.5479 35.0736 21.7429 35.2356 21.9949C35.3976 22.2469 35.4786 22.5439 35.4786 22.8859V22.9939C35.4786 23.3719 35.3886 23.6779 35.2086 23.9119C35.0286 24.1459 34.8066 24.3169 34.5426 24.4249V24.5869C34.7826 24.5989 34.9686 24.6829 35.1006 24.8389C35.2326 24.9889 35.2986 25.1899 35.2986 25.4419V27.5029H34.1106V25.6129C34.1106 25.4689 34.0716 25.3519 33.9936 25.2619C33.9216 25.1719 33.7986 25.1269 33.6246 25.1269H31.9686V27.5029H30.7806ZM31.9686 24.0469H33.3906C33.6726 24.0469 33.8916 23.9719 34.0476 23.8219C34.2096 23.6659 34.2906 23.4619 34.2906 23.2099V23.1199C34.2906 22.8679 34.2126 22.6669 34.0566 22.5169C33.9006 22.3609 33.6786 22.2829 33.3906 22.2829H31.9686V24.0469Z" fill="black"/>
<path d="M24.008 39.9897L24.6948 42.1033H26.9172L25.1192 43.4096L25.806 45.5232L24.008 44.2169L22.2101 45.5232L22.8969 43.4096L21.0989 42.1033H23.3213L24.008 39.9897Z" fill="black"/>
<path d="M4.93773 20.9443L5.62448 23.0579H7.84684L6.04891 24.3642L6.73566 26.4778L4.93773 25.1715L3.1398 26.4778L3.82655 24.3642L2.02862 23.0579H4.25098L4.93773 20.9443Z" fill="black"/>
<path d="M7.53148 11.2939L8.21823 13.4075H10.4406L8.64266 14.7138L9.32941 16.8274L7.53148 15.5211L5.73355 16.8274L6.4203 14.7138L4.62237 13.4075H6.84473L7.53148 11.2939Z" fill="black"/>
<path d="M7.53148 30.3594L8.21823 32.473H10.4406L8.64266 33.7792L9.32941 35.8928L7.53148 34.5866L5.73355 35.8928L6.4203 33.7792L4.62237 32.473H6.84473L7.53148 30.3594Z" fill="black"/>
<path d="M14.5901 4.22754L15.2768 6.34113H17.4992L15.7013 7.64741L16.388 9.761L14.5901 8.45473L12.7921 9.761L13.4789 7.64741L11.681 6.34113H13.9033L14.5901 4.22754Z" fill="black"/>
<path d="M14.5901 37.4058L15.2768 39.5194H17.4992L15.7013 40.8256L16.388 42.9392L14.5901 41.633L12.7921 42.9392L13.4789 40.8256L11.681 39.5194H13.9033L14.5901 37.4058Z" fill="black"/>
<path d="M40.4709 11.2939L41.1577 13.4075H43.38L41.5821 14.7138L42.2689 16.8274L40.4709 15.5211L38.673 16.8274L39.3598 14.7138L37.5618 13.4075H39.7842L40.4709 11.2939Z" fill="black"/>
<path d="M40.4709 30.3594L41.1577 32.473H43.38L41.5821 33.7792L42.2689 35.8928L40.4709 34.5866L38.673 35.8928L39.3598 33.7792L37.5618 32.473H39.7842L40.4709 30.3594Z" fill="black"/>
<path d="M33.6448 4.22754L34.3315 6.34113H36.5539L34.7559 7.64741L35.4427 9.761L33.6448 8.45473L31.8468 9.761L32.5336 7.64741L30.7356 6.34113H32.958L33.6448 4.22754Z" fill="black"/>
<path d="M33.6448 37.4058L34.3315 39.5194H36.5539L34.7559 40.8256L35.4427 42.9392L33.6448 41.633L31.8468 42.9392L32.5336 40.8256L30.7356 39.5194H32.958L33.6448 37.4058Z" fill="black"/>
<path d="M43.0647 20.9443L43.7514 23.0579H45.9738L44.1759 24.3642L44.8626 26.4778L43.0647 25.1715L41.2668 26.4778L41.9535 24.3642L40.1556 23.0579H42.3779L43.0647 20.9443Z" fill="black"/>
<path d="M24.008 1.64844L24.6948 3.76203H26.9172L25.1192 5.06831L25.806 7.1819L24.008 5.87563L22.2101 7.1819L22.8969 5.06831L21.0989 3.76203H23.3213L24.008 1.64844Z" fill="black"/>
</svg>
