<svg width="48" height="48" viewBox="0 0 48 48" fill="none" xmlns="http://www.w3.org/2000/svg">
<g clip-path="url(#clip0_8298_19773)">
<rect width="48" height="48" rx="24" fill="#F5BE37"/>
<g clip-path="url(#clip1_8298_19773)">
<path d="M37.3931 10.2354H10.6074V34.3346H37.3931V10.2354Z" fill="black"/>
<path d="M10.6055 22.2863V34.3359H23.9983H37.3912V22.2863V10.2367H23.9983H10.6055V22.2863ZM24.4973 13.0168C25.1369 13.039 25.899 13.161 26.5794 13.3516C28.6705 13.9369 30.4623 15.2073 31.7505 17.012C31.8208 17.1117 31.8798 17.2048 31.8798 17.2181C31.8798 17.2359 31.7778 17.2425 31.5532 17.2425H31.2266L31.1223 17.0984C30.8342 16.7082 30.2718 16.0963 29.9021 15.7749L29.7433 15.6374L29.3555 15.7327C28.6614 15.899 27.8971 16.0342 27.135 16.1251C26.9627 16.1473 26.8221 16.1717 26.8221 16.1784C26.8221 16.1872 26.8538 16.2936 26.8924 16.4134C26.9808 16.6994 27.1169 17.1782 27.1169 17.2137C27.1169 17.2359 27.0466 17.2425 26.8334 17.2425H26.5522L26.5136 17.1139C26.4955 17.0452 26.4569 16.9166 26.4342 16.8324C26.3616 16.5885 26.2505 16.2582 26.2324 16.2382C26.2233 16.2271 26.0736 16.2293 25.9012 16.2426C25.7311 16.2559 25.248 16.2781 24.8307 16.2936C24.0301 16.3202 22.9029 16.2959 22.1499 16.2338C21.9571 16.2183 21.7915 16.2116 21.7824 16.2205C21.7643 16.2382 21.601 16.737 21.5239 17.0186L21.4626 17.2425H21.1837C20.9274 17.2425 20.9024 17.2381 20.9024 17.2026C20.9024 17.1539 21.0317 16.6838 21.1292 16.3801C21.1678 16.2648 21.1905 16.1628 21.1791 16.154C21.1701 16.1473 21.0567 16.1274 20.9251 16.1141C20.3059 16.0453 19.4078 15.8835 18.7206 15.7194L18.2964 15.6174L18.1762 15.7172C17.8111 16.0232 17.2236 16.6528 16.922 17.0585L16.7859 17.2425H16.4525C16.2665 17.2425 16.1168 17.2359 16.1168 17.2292C16.1168 17.2004 16.4797 16.7082 16.6839 16.4555C17.5548 15.3891 18.6208 14.551 19.8818 13.9414C20.8435 13.4758 21.7824 13.2031 22.887 13.0634C23.166 13.0279 23.9053 12.9902 24.0777 13.0013C24.1208 13.0035 24.3113 13.0124 24.4973 13.0168ZM23.4313 18.0872C23.7851 18.1294 23.9847 18.1382 24.935 18.1449L26.0282 18.1537V19.3509V20.5459H25.053H24.08L24.0732 20.2865L24.0664 20.0249L23.9303 19.9717C23.5402 19.821 23.0163 19.7389 22.4334 19.7367C21.8596 19.7367 21.601 19.7855 21.3538 19.9473C21.0998 20.1092 21.0635 20.4395 21.2744 20.6435C21.4944 20.8607 21.7643 20.9295 22.9664 21.0758C24.0051 21.2044 24.4066 21.2864 24.9101 21.4793C25.1528 21.5724 25.459 21.7476 25.6495 21.905C25.9307 22.1333 26.1621 22.5102 26.2686 22.9093C26.348 23.2064 26.3707 23.7784 26.314 24.0821C26.2165 24.6009 26.0169 24.9734 25.6517 25.3126C25.2571 25.6806 24.7491 25.9223 24.0482 26.0752C23.2748 26.2459 22.1793 26.2726 21.0816 26.1506C20.7051 26.1107 20.4874 26.1018 19.5824 26.0952L18.521 26.0863V24.9002V23.7163H19.4962H20.4715V23.9602V24.204L20.56 24.2484C20.848 24.3903 21.44 24.4945 22.0637 24.5078C23.1387 24.5344 23.6218 24.3482 23.6241 23.9047C23.6241 23.7318 23.5742 23.6387 23.4245 23.5367C23.2068 23.386 22.9006 23.3172 21.9231 23.1953C20.7482 23.0468 20.2833 22.9426 19.7729 22.7075C18.9587 22.3306 18.5573 21.7564 18.4756 20.8519C18.4303 20.373 18.5096 19.9252 18.7024 19.535C19.1356 18.6592 20.1268 18.156 21.6622 18.0318C21.9707 18.0074 23.0367 18.0407 23.4313 18.0872ZM32.0159 18.0739C33.0274 18.2225 33.8326 18.5949 34.4563 19.2024C35.2161 19.9451 35.5835 20.8984 35.5813 22.12C35.5813 22.7053 35.5155 23.1443 35.359 23.6054C34.826 25.1707 33.4448 26.1063 31.501 26.2193C30.4827 26.277 29.4462 26.0797 28.7045 25.685C28.2033 25.419 27.6703 24.9512 27.3823 24.5255C27.033 24.0067 26.8175 23.4126 26.7313 22.7186C26.6973 22.4415 26.7041 21.7409 26.7427 21.4505C26.9287 20.0759 27.6816 19.0339 28.8928 18.473C29.3986 18.2402 29.9452 18.1005 30.621 18.0318C30.8478 18.0096 31.7664 18.0362 32.0159 18.0739ZM17.9313 19.1603V20.1469H17.2735H16.6158V22.1422V24.1375H17.2735H17.9313V25.1241V26.1107L15.3185 26.1063L12.7034 26.0996L12.6966 25.1175L12.6921 24.1375H13.3498H14.0075V22.1422V20.1469L13.3566 20.1424L12.7034 20.1358L12.6966 19.1536L12.6921 18.1737H15.3117H17.9313V19.1603ZM16.8653 27.1461C17.1533 27.5451 17.7839 28.2302 18.1399 28.5317L18.2692 28.6404L18.6389 28.5517C19.3488 28.381 20.0519 28.2546 20.7777 28.1681C21.0022 28.1415 21.1882 28.1171 21.1927 28.1149C21.1973 28.1127 21.1678 28.0129 21.1292 27.891C21.0362 27.605 20.9024 27.1305 20.9024 27.0818C20.9024 27.0463 20.9296 27.0419 21.1837 27.0419H21.4626L21.5239 27.2569C21.5579 27.3766 21.6282 27.6072 21.6781 27.7713L21.7734 28.0661L21.9004 28.0528C22.633 27.9797 24.5427 27.9597 25.4385 28.0174C25.7198 28.0351 26.0146 28.0506 26.094 28.0506H26.2414L26.3185 27.8178C26.3616 27.6892 26.4297 27.4653 26.4705 27.319L26.5454 27.0529L26.8311 27.0463C27.0216 27.0419 27.1169 27.0485 27.1169 27.064C27.1169 27.1017 26.9196 27.7934 26.8583 27.9664L26.8016 28.126L26.8742 28.1371C26.915 28.1437 27.0738 28.1659 27.2303 28.1836C27.8948 28.2657 28.7204 28.4186 29.3464 28.5738C29.6707 28.6559 29.7093 28.6603 29.7546 28.6315C29.8635 28.5605 30.3534 28.0839 30.5893 27.8245C30.7254 27.6715 30.925 27.4343 31.0316 27.2946L31.2289 27.0419H31.5532C31.7324 27.0419 31.8798 27.0507 31.8798 27.0596C31.8798 27.0884 31.5804 27.5097 31.4058 27.7291C29.8408 29.7001 27.5297 30.9594 24.9736 31.2365C24.5517 31.2809 23.3315 31.2742 22.9323 31.2254C20.8571 30.9638 19.1084 30.1657 17.5911 28.7867C17.0694 28.3122 16.4162 27.5451 16.1304 27.0685C16.1168 27.0485 16.1871 27.0419 16.4525 27.0419H16.7905L16.8653 27.1461Z" fill="#F5BE37"/>
<path d="M23.6898 13.5681C23.1659 13.7433 22.6669 14.2975 22.2087 15.2132C22.1044 15.4194 22.0137 15.6078 22.0069 15.6278C21.9955 15.6588 22.0137 15.6677 22.1112 15.6788C22.6737 15.7386 24.1479 15.7697 24.9508 15.7364C25.9147 15.6965 26.0055 15.6899 26.0055 15.6477C26.0055 15.5923 25.6653 14.925 25.5201 14.6988C25.2253 14.2333 24.9327 13.9096 24.6333 13.7167C24.318 13.5171 23.9982 13.4662 23.6898 13.5681Z" fill="#F5BE37"/>
<path d="M22.4234 13.6566C21.2077 13.9071 20.2143 14.3084 19.1755 14.9735C18.9215 15.1354 18.8399 15.2041 18.9034 15.2041C18.9124 15.2041 19.0576 15.2351 19.2254 15.2706C19.7743 15.3926 20.9197 15.5766 21.3189 15.6076L21.405 15.6143L21.5003 15.3926C21.777 14.7607 22.2079 14.0712 22.5572 13.712C22.6343 13.6322 22.6343 13.63 22.5822 13.6322C22.5504 13.6344 22.4801 13.6433 22.4234 13.6566Z" fill="#F5BE37"/>
<path d="M25.4714 13.7215C25.6279 13.8989 25.8865 14.247 26.018 14.4532C26.1791 14.7081 26.4218 15.1737 26.5261 15.4331L26.6055 15.626L26.7529 15.6127C27.4673 15.5439 29.157 15.2535 29.157 15.1981C29.157 15.187 29.0119 15.085 28.835 14.9719C27.8688 14.349 26.7983 13.9056 25.7345 13.6861C25.3694 13.6107 25.3716 13.6107 25.4714 13.7215Z" fill="#F5BE37"/>
<path d="M30.84 19.9064C30.0848 20.0194 29.6448 20.5449 29.5087 21.4938C29.4565 21.864 29.4747 22.6599 29.5427 22.9703C29.7582 23.9414 30.3138 24.3959 31.2324 24.3538C31.711 24.3316 31.9718 24.2296 32.2553 23.9503C32.6499 23.5667 32.8087 23.0368 32.811 22.1212C32.811 21.3696 32.6998 20.893 32.4322 20.4983C32.2462 20.2212 31.9446 20.0172 31.6089 19.9374C31.4206 19.8953 31.0283 19.8776 30.84 19.9064Z" fill="#F5BE37"/>
</g>
<path d="M31.6909 33.4968V29.9658L30.8809 30.4608V29.6628L31.6909 29.1768H32.4289V33.4968H31.6909Z" fill="black"/>
<path d="M28.5442 33.5879C28.2382 33.5879 27.9682 33.5229 27.7342 33.3929C27.5002 33.2609 27.3172 33.0779 27.1852 32.8439C27.0552 32.6099 26.9902 32.3399 26.9902 32.0339V30.6419C26.9902 30.3359 27.0552 30.0659 27.1852 29.8319C27.3172 29.5979 27.5002 29.4159 27.7342 29.2859C27.9682 29.1539 28.2382 29.0879 28.5442 29.0879C28.8502 29.0879 29.1192 29.1539 29.3512 29.2859C29.5852 29.4159 29.7682 29.5979 29.9002 29.8319C30.0322 30.0659 30.0982 30.3359 30.0982 30.6419V32.0339C30.0982 32.3399 30.0322 32.6099 29.9002 32.8439C29.7682 33.0779 29.5852 33.2609 29.3512 33.3929C29.1192 33.5229 28.8502 33.5879 28.5442 33.5879ZM28.5442 32.9009C28.6962 32.9009 28.8342 32.8649 28.9582 32.7929C29.0822 32.7189 29.1802 32.6209 29.2522 32.4989C29.3242 32.3749 29.3602 32.2369 29.3602 32.0849V30.5879C29.3602 30.4339 29.3242 30.2959 29.2522 30.1739C29.1802 30.0499 29.0822 29.9519 28.9582 29.8799C28.8342 29.8059 28.6962 29.7689 28.5442 29.7689C28.3922 29.7689 28.2542 29.8059 28.1302 29.8799C28.0062 29.9519 27.9082 30.0499 27.8362 30.1739C27.7642 30.2959 27.7282 30.4339 27.7282 30.5879V32.0849C27.7282 32.2369 27.7642 32.3749 27.8362 32.4989C27.9082 32.6209 28.0062 32.7189 28.1302 32.7929C28.2542 32.8649 28.3922 32.9009 28.5442 32.9009Z" fill="black"/>
<path d="M24.595 33.5879C24.289 33.5879 24.019 33.5229 23.785 33.3929C23.551 33.2609 23.368 33.0779 23.236 32.8439C23.106 32.6099 23.041 32.3399 23.041 32.0339V30.6419C23.041 30.3359 23.106 30.0659 23.236 29.8319C23.368 29.5979 23.551 29.4159 23.785 29.2859C24.019 29.1539 24.289 29.0879 24.595 29.0879C24.901 29.0879 25.17 29.1539 25.402 29.2859C25.636 29.4159 25.819 29.5979 25.951 29.8319C26.083 30.0659 26.149 30.3359 26.149 30.6419V32.0339C26.149 32.3399 26.083 32.6099 25.951 32.8439C25.819 33.0779 25.636 33.2609 25.402 33.3929C25.17 33.5229 24.901 33.5879 24.595 33.5879ZM24.595 32.9009C24.747 32.9009 24.885 32.8649 25.009 32.7929C25.133 32.7189 25.231 32.6209 25.303 32.4989C25.375 32.3749 25.411 32.2369 25.411 32.0849V30.5879C25.411 30.4339 25.375 30.2959 25.303 30.1739C25.231 30.0499 25.133 29.9519 25.009 29.8799C24.885 29.8059 24.747 29.7689 24.595 29.7689C24.443 29.7689 24.305 29.8059 24.181 29.8799C24.057 29.9519 23.959 30.0499 23.887 30.1739C23.815 30.2959 23.779 30.4339 23.779 30.5879V32.0849C23.779 32.2369 23.815 32.3749 23.887 32.4989C23.959 32.6209 24.057 32.7189 24.181 32.7929C24.305 32.8649 24.443 32.9009 24.595 32.9009Z" fill="black"/>
<path d="M20.0611 33.4968L21.5491 29.8608H19.6621V29.1768H22.3231V29.8608L20.8411 33.4968H20.0611Z" fill="black"/>
<path d="M16.1484 33.4919V32.8619L17.9964 31.2149C18.1404 31.0869 18.2404 30.9659 18.2964 30.8519C18.3524 30.7379 18.3804 30.6279 18.3804 30.5219C18.3804 30.3779 18.3494 30.2499 18.2874 30.1379C18.2254 30.0239 18.1394 29.9339 18.0294 29.8679C17.9214 29.8019 17.7964 29.7689 17.6544 29.7689C17.5044 29.7689 17.3714 29.8039 17.2554 29.8739C17.1414 29.9419 17.0524 30.0329 16.9884 30.1469C16.9244 30.2609 16.8944 30.3839 16.8984 30.5159H16.1544C16.1544 30.2279 16.2184 29.9769 16.3464 29.7629C16.4764 29.5489 16.6544 29.3829 16.8804 29.2649C17.1084 29.1469 17.3714 29.0879 17.6694 29.0879C17.9454 29.0879 18.1934 29.1499 18.4134 29.2739C18.6334 29.3959 18.8064 29.5659 18.9324 29.7839C19.0584 29.9999 19.1214 30.2489 19.1214 30.5309C19.1214 30.7369 19.0934 30.9099 19.0374 31.0499C18.9814 31.1899 18.8974 31.3189 18.7854 31.4369C18.6754 31.5549 18.5384 31.6859 18.3744 31.8299L17.0634 32.9909L16.9974 32.8109H19.1214V33.4919H16.1484Z" fill="black"/>
<path d="M16.176 40.7449L15.7045 40.52C15.7249 40.4549 15.7332 40.3923 15.7292 40.3323C15.7256 40.2715 15.711 40.2144 15.6855 40.1608C15.6599 40.1072 15.6242 40.0584 15.5782 40.0145C15.5329 39.9708 15.4787 39.934 15.4155 39.9039C15.3014 39.8494 15.1884 39.8304 15.0767 39.8467C14.9653 39.8623 14.8606 39.9128 14.7626 39.9982C14.665 40.0829 14.5797 40.2017 14.5068 40.3546C14.4318 40.5118 14.3922 40.655 14.3878 40.7842C14.3842 40.9137 14.4117 41.026 14.4704 41.1209C14.5291 41.2159 14.6141 41.2899 14.7253 41.3429C14.7878 41.3727 14.8495 41.392 14.9105 41.4008C14.9722 41.41 15.0314 41.4087 15.0881 41.3969C15.1451 41.3845 15.1982 41.3618 15.2474 41.3289C15.2973 41.2963 15.3417 41.2531 15.3805 41.1994L15.8511 41.4264C15.7906 41.5218 15.7135 41.6049 15.6199 41.6756C15.5273 41.746 15.4225 41.7987 15.3054 41.8336C15.1894 41.8681 15.0648 41.88 14.9315 41.8694C14.7994 41.8583 14.6626 41.8191 14.5212 41.7517C14.3245 41.6579 14.1699 41.5295 14.0573 41.3666C13.9454 41.204 13.8848 41.017 13.8755 40.8055C13.8669 40.5944 13.9198 40.369 14.0341 40.1292C14.1488 39.8888 14.2916 39.7058 14.4624 39.5802C14.6333 39.4547 14.8173 39.3847 15.0144 39.3704C15.2119 39.3553 15.4076 39.3939 15.6014 39.4864C15.7291 39.5473 15.839 39.6217 15.931 39.7096C16.0237 39.7979 16.096 39.8966 16.1478 40.0059C16.2 40.1145 16.229 40.231 16.2349 40.3554C16.2415 40.4801 16.2219 40.6099 16.176 40.7449Z" fill="black"/>
<path d="M16.863 42.6999L17.5898 40.3677L19.1614 40.8574L19.0347 41.264L17.9562 40.9279L17.7831 41.4836L18.7806 41.7945L18.6539 42.201L17.6564 41.8902L17.4828 42.447L18.5658 42.7845L18.4391 43.1911L16.863 42.6999Z" fill="black"/>
<path d="M19.5355 43.4371L19.9453 41.0288L20.8954 41.1905C21.0773 41.2214 21.227 41.2804 21.3445 41.3673C21.4629 41.4536 21.5457 41.5617 21.593 41.6915C21.6412 41.8207 21.6518 41.9649 21.6247 42.124C21.5975 42.284 21.5396 42.4157 21.451 42.5192C21.3625 42.6219 21.2476 42.6927 21.1063 42.7316C20.9658 42.7706 20.803 42.7743 20.618 42.7428L19.9818 42.6346L20.0514 42.2254L20.6053 42.3196C20.7025 42.3362 20.7855 42.3366 20.8543 42.3209C20.9232 42.3051 20.9778 42.2733 21.0182 42.2253C21.0594 42.1775 21.0868 42.114 21.1002 42.0348C21.1138 41.9548 21.1092 41.8847 21.0864 41.8243C21.0644 41.7641 21.0233 41.7144 20.963 41.6751C20.9037 41.6351 20.825 41.6068 20.727 41.5902L20.3836 41.5317L20.0447 43.5237L19.5355 43.4371ZM21.0226 42.5624L21.4346 43.7602L20.8725 43.6646L20.4734 42.469L21.0226 42.5624Z" fill="black"/>
<path d="M22.2828 41.8108L22.2988 41.3853L24.3037 41.4607L24.2877 41.8862L23.5403 41.8581L23.4645 43.8737L22.9544 43.8545L23.0302 41.8389L22.2828 41.8108Z" fill="black"/>
<path d="M25.5993 41.3626L25.7617 43.8001L25.2464 43.8344L25.084 41.397L25.5993 41.3626Z" fill="black"/>
<path d="M26.3819 43.7574L25.9961 41.3452L27.5932 41.0898L27.6605 41.5103L26.5734 41.6841L26.6653 42.2589L27.6464 42.102L27.7137 42.5225L26.7325 42.6794L26.8919 43.6759L26.3819 43.7574Z" fill="black"/>
<path d="M29.0122 40.7487L29.6164 43.1157L29.1159 43.2434L28.5117 40.8765L29.0122 40.7487Z" fill="black"/>
<path d="M30.6831 42.7998L29.8418 40.5063L31.3872 39.9395L31.5338 40.3393L30.4733 40.7283L30.6738 41.2747L31.6548 40.9149L31.8014 41.3147L30.8204 41.6745L31.0213 42.2221L32.0863 41.8315L32.2329 42.2313L30.6831 42.7998Z" fill="black"/>
<path d="M33.7563 41.4991L32.9933 41.9087L31.8379 39.7563L32.6072 39.3434C32.8237 39.2272 33.0332 39.1702 33.2357 39.1725C33.4378 39.1741 33.624 39.2326 33.7942 39.3479C33.9651 39.4628 34.1105 39.632 34.2305 39.8555C34.3509 40.0798 34.4119 40.2952 34.4136 40.5018C34.4161 40.7081 34.3616 40.8967 34.2502 41.0675C34.1395 41.2379 33.9749 41.3818 33.7563 41.4991ZM33.2391 41.2745L33.5281 41.1194C33.6626 41.0472 33.763 40.9626 33.8292 40.8657C33.8957 40.7677 33.925 40.6558 33.9171 40.5301C33.9095 40.4033 33.8626 40.2597 33.7765 40.0993C33.6911 39.9402 33.5979 39.8229 33.4968 39.7472C33.3964 39.6711 33.2875 39.6339 33.1701 39.6355C33.0528 39.6371 32.9268 39.674 32.7923 39.7463L32.5023 39.902L33.2391 41.2745Z" fill="black"/>
<path d="M5.25439 33.2764L7.3583 32.1886L7.58828 32.6334L5.48438 33.7212L5.25439 33.2764Z" fill="black"/>
<path d="M4.23491 30.8289L6.44585 29.9796L6.60095 30.3834L5.57891 31.8798L5.58513 31.896L6.97668 31.3614L7.15625 31.8289L4.94531 32.6782L4.78772 32.268L5.81159 30.7795L5.80412 30.7601L4.41365 31.2942L4.23491 30.8289Z" fill="black"/>
<path d="M6.23865 29.3175L3.93555 29.8701L3.56968 28.3452L3.97115 28.2489L4.22019 29.2869L4.76897 29.1552L4.54422 28.2184L4.94569 28.1221L5.17044 29.0589L6.12182 28.8306L6.23865 29.3175Z" fill="black"/>
<path d="M4.34547 25.2309C4.60234 25.2039 4.82598 25.2297 5.0164 25.3081C5.20674 25.3858 5.35822 25.5032 5.47086 25.6604C5.58264 25.8169 5.64945 25.999 5.67127 26.2068C5.69325 26.4162 5.66544 26.609 5.58784 26.7854C5.51023 26.9618 5.38641 27.1077 5.21636 27.2232C5.04632 27.3388 4.83325 27.41 4.57715 27.4369C4.32028 27.4639 4.09668 27.4385 3.90634 27.3608C3.716 27.2831 3.56494 27.166 3.45316 27.0096C3.3406 26.8532 3.27333 26.6703 3.25135 26.461C3.22953 26.2532 3.25742 26.0611 3.33502 25.8847C3.41178 25.7077 3.53518 25.5614 3.70523 25.4458C3.87519 25.3295 4.08861 25.2579 4.34547 25.2309ZM4.3985 25.7358C4.23211 25.7533 4.09441 25.793 3.9854 25.8548C3.8763 25.9159 3.79694 25.9944 3.74732 26.0903C3.6977 26.1862 3.67922 26.2943 3.69186 26.4147C3.7045 26.5351 3.74505 26.637 3.81352 26.7205C3.88198 26.8041 3.97595 26.8647 4.09543 26.9026C4.21484 26.9397 4.35773 26.9495 4.52412 26.932C4.69051 26.9145 4.82825 26.8752 4.93735 26.8142C5.04636 26.7523 5.12568 26.6734 5.1753 26.5775C5.22492 26.4816 5.2434 26.3735 5.23076 26.2531C5.21812 26.1327 5.17757 26.0308 5.1091 25.9473C5.04064 25.8637 4.94671 25.8034 4.82731 25.7664C4.70782 25.7285 4.56489 25.7183 4.3985 25.7358Z" fill="black"/>
<path d="M5.51326 24.1659L3.14648 24.0767L3.18171 23.1429C3.18845 22.9642 3.22618 22.8128 3.2949 22.6889C3.36287 22.5641 3.45627 22.4708 3.57511 22.409C3.6932 22.3463 3.83045 22.3179 3.98685 22.3238C4.14401 22.3297 4.27795 22.3687 4.38864 22.4408C4.49857 22.5129 4.58115 22.6143 4.63639 22.7453C4.69166 22.8754 4.71587 23.0314 4.70901 23.2132L4.68542 23.8384L4.28325 23.8233L4.30379 23.279C4.30739 23.1834 4.29729 23.1036 4.27348 23.0394C4.24967 22.9753 4.21215 22.9268 4.16092 22.894C4.10972 22.8604 4.04521 22.8422 3.9674 22.8392C3.88882 22.8363 3.82196 22.8496 3.76684 22.8791C3.71175 22.9079 3.66913 22.9537 3.63898 23.0166C3.60809 23.0787 3.59083 23.1579 3.58719 23.2542L3.57446 23.5917L5.53214 23.6656L5.51326 24.1659ZM4.48441 22.8472L5.58368 22.2996L5.56284 22.852L4.46405 23.3869L4.48441 22.8472Z" fill="black"/>
<path d="M3.27539 21.564L3.39604 20.9583L5.08412 20.6295L5.08954 20.6023L3.65633 19.6517L3.77698 19.0461L6.09981 19.5088L6.00491 19.9852L4.49303 19.684L4.48919 19.7033L5.86998 20.6033L5.80536 20.9277L4.1794 21.2287L4.17556 21.248L5.69311 21.5503L5.59821 22.0267L3.27539 21.564Z" fill="black"/>
<path d="M6.45244 18.395L6.26037 18.8961L4.34149 17.2849L4.57247 16.6823L7.07625 16.7677L6.88419 17.2687L4.96566 17.1687L4.95904 17.186L6.45244 18.395ZM5.57115 18.0931L6.02484 16.9096L6.38983 17.0495L5.93615 18.233L5.57115 18.0931Z" fill="black"/>
<path d="M5.71432 15.1084L5.35352 14.9077L6.29906 13.2078L6.65986 13.4085L6.30739 14.0422L8.01641 14.9928L7.77581 15.4253L6.06679 14.4747L5.71432 15.1084Z" fill="black"/>
<path d="M7.0383 12.1611L8.98773 13.5062L8.70334 13.9184L6.75391 12.5732L7.0383 12.1611Z" fill="black"/>
<path d="M9.74078 10.7252C9.93567 10.8947 10.0693 11.0759 10.1418 11.2686C10.2148 11.4608 10.2322 11.6517 10.194 11.8413C10.1558 12.0297 10.0681 12.2028 9.93101 12.3605C9.79289 12.5193 9.63287 12.6304 9.45094 12.6939C9.26902 12.7575 9.07782 12.7664 8.87736 12.7208C8.6769 12.6752 8.47951 12.5679 8.28521 12.399C8.09032 12.2295 7.95639 12.0486 7.88342 11.8564C7.81046 11.6642 7.79309 11.4739 7.83132 11.2854C7.86897 11.0964 7.95686 10.9225 8.09498 10.7637C8.23209 10.6061 8.3916 10.4955 8.57353 10.432C8.75538 10.3674 8.94654 10.3579 9.147 10.4035C9.34797 10.4485 9.54589 10.5557 9.74078 10.7252ZM9.40763 11.1083C9.28138 10.9985 9.15848 10.9249 9.03891 10.8873C8.91985 10.8491 8.80832 10.8446 8.70433 10.8737C8.60034 10.9028 8.50863 10.963 8.4292 11.0544C8.34977 11.1457 8.30285 11.2449 8.28845 11.3519C8.27405 11.4589 8.29375 11.5691 8.34755 11.6823C8.40185 11.7949 8.49212 11.9061 8.61836 12.0159C8.74461 12.1257 8.86726 12.1996 8.98632 12.2378C9.10589 12.2753 9.21767 12.2796 9.32166 12.2505C9.42565 12.2214 9.51736 12.1611 9.59679 12.0698C9.67622 11.9785 9.72314 11.8793 9.73754 11.7723C9.75194 11.6652 9.73199 11.5554 9.67768 11.4428C9.62389 11.3296 9.53387 11.2181 9.40763 11.1083Z" fill="black"/>
<path d="M11.0946 7.92137L12.6241 9.72975L12.2939 10.0091L10.5445 9.5363L10.5312 9.5475L11.4939 10.6857L11.1115 11.0091L9.58203 9.20068L9.91757 8.91689L11.6601 9.394L11.6759 9.38055L10.714 8.24325L11.0946 7.92137Z" fill="black"/>
<path d="M14.8532 6.3624C14.801 6.28455 14.7317 6.23942 14.6455 6.22704C14.5593 6.21465 14.4631 6.23686 14.3571 6.29368C14.2851 6.33228 14.2297 6.37507 14.1911 6.42204C14.152 6.46833 14.1287 6.51625 14.1212 6.56579C14.1143 6.61497 14.1228 6.66198 14.1469 6.70683C14.1656 6.74493 14.1909 6.77336 14.2228 6.79212C14.2554 6.81051 14.2924 6.82171 14.3339 6.8257C14.3751 6.82902 14.4197 6.82741 14.4678 6.82087C14.5155 6.81366 14.5649 6.80294 14.6159 6.78874L14.8275 6.73307C14.9295 6.70465 15.0276 6.68704 15.1219 6.68023C15.2163 6.67341 15.3046 6.67988 15.3869 6.69962C15.4692 6.71937 15.5437 6.75468 15.6103 6.80557C15.6776 6.85609 15.7349 6.92466 15.7822 7.01128C15.85 7.13939 15.8768 7.26764 15.8625 7.39602C15.8485 7.52335 15.7948 7.64525 15.7016 7.76172C15.6086 7.87715 15.4772 7.98039 15.3073 8.07144C15.1388 8.16176 14.9781 8.2146 14.8254 8.22997C14.6734 8.24497 14.5352 8.2206 14.411 8.15686C14.287 8.09207 14.1831 7.9855 14.0992 7.83714L14.5263 7.60825C14.5686 7.67569 14.62 7.72339 14.6804 7.75134C14.7412 7.77825 14.8079 7.78757 14.8804 7.7793C14.9533 7.76999 15.0278 7.74495 15.1039 7.70416C15.1786 7.66409 15.2377 7.61844 15.2811 7.5672C15.3252 7.51559 15.3521 7.46222 15.3619 7.4071C15.3717 7.35198 15.3632 7.29927 15.3362 7.24899C15.3111 7.2021 15.276 7.17015 15.2311 7.15314C15.1868 7.13577 15.1321 7.13008 15.0671 7.13606C15.0027 7.14168 14.9276 7.15571 14.8417 7.17815L14.5838 7.24289C14.3848 7.2944 14.21 7.30195 14.0592 7.26552C13.9085 7.22909 13.7921 7.13356 13.7101 6.97894C13.6417 6.85291 13.6162 6.72446 13.6335 6.59358C13.6515 6.46234 13.7061 6.33817 13.7973 6.22107C13.8885 6.10396 14.0102 6.00462 14.1624 5.92304C14.3174 5.84001 14.4668 5.79404 14.6107 5.78513C14.7553 5.77585 14.8852 5.80115 15.0004 5.86101C15.1156 5.92086 15.2075 6.01243 15.2762 6.13569L14.8532 6.3624Z" fill="black"/>
<path d="M16.7335 7.35626L15.9004 5.13916L17.3943 4.57778L17.5396 4.96426L16.5144 5.34949L16.7129 5.87779L17.6612 5.52143L17.8064 5.90791L16.8581 6.26426L17.057 6.79364L18.0866 6.40678L18.2318 6.79325L16.7335 7.35626Z" fill="black"/>
<path d="M20.2664 4.71585L19.7722 4.82685C19.7488 4.76494 19.7176 4.71228 19.6786 4.66889C19.6395 4.62474 19.5941 4.58988 19.5426 4.56433C19.491 4.53877 19.4345 4.52301 19.3731 4.51704C19.3125 4.51091 19.2491 4.51528 19.1829 4.53014C19.0632 4.55701 18.9657 4.61012 18.8903 4.68949C18.8147 4.7681 18.7652 4.86931 18.7416 4.99313C18.7179 5.1162 18.724 5.25784 18.76 5.41807C18.797 5.58281 18.8525 5.71574 18.9266 5.81684C19.0014 5.91777 19.0896 5.98686 19.1913 6.02409C19.2929 6.06132 19.402 6.06685 19.5186 6.04066C19.584 6.02596 19.6426 6.00371 19.6944 5.97391C19.7469 5.94393 19.7913 5.9075 19.8275 5.8646C19.8635 5.82095 19.8904 5.77184 19.9082 5.71728C19.9267 5.66254 19.9347 5.60307 19.9321 5.53885L20.4269 5.43011C20.4379 5.53904 20.4289 5.64853 20.3999 5.75856C20.3714 5.86767 20.323 5.9706 20.2547 6.06734C20.1869 6.16316 20.099 6.2469 19.9911 6.31856C19.8837 6.3893 19.7559 6.44131 19.6077 6.4746C19.4016 6.52089 19.2068 6.51565 19.0234 6.45886C18.8407 6.40191 18.6825 6.2956 18.5488 6.13994C18.4158 5.98412 18.3211 5.78058 18.2647 5.52933C18.2081 5.27733 18.2073 5.05229 18.2624 4.85423C18.3175 4.65616 18.4158 4.49262 18.5575 4.3636C18.6991 4.23383 18.8714 4.14613 19.0745 4.10051C19.2084 4.07044 19.3368 4.06137 19.4595 4.0733C19.5831 4.08506 19.6973 4.11708 19.8023 4.16936C19.9071 4.22089 19.999 4.29231 20.078 4.38361C20.1578 4.47475 20.2206 4.5855 20.2664 4.71585Z" fill="black"/>
<path d="M22.5588 3.62784L23.0582 3.59187L23.1687 5.12601C23.1811 5.29827 23.1508 5.45195 23.0778 5.58707C23.0056 5.72213 22.8987 5.83109 22.757 5.91395C22.6153 5.99604 22.4468 6.04412 22.2514 6.05819C22.0553 6.07231 21.8813 6.0489 21.7293 5.98796C21.5772 5.92625 21.4557 5.83374 21.3649 5.71041C21.2741 5.58709 21.2225 5.43931 21.2101 5.26705L21.0996 3.73291L21.5991 3.69694L21.7065 5.18841C21.7129 5.27838 21.7383 5.35694 21.7826 5.4241C21.8276 5.4912 21.8877 5.54214 21.9629 5.57692C22.038 5.6117 22.1237 5.62563 22.2198 5.61871C22.3167 5.61173 22.3995 5.58568 22.4681 5.54054C22.5375 5.49534 22.5893 5.43635 22.6235 5.36354C22.6584 5.29069 22.6727 5.20927 22.6662 5.1193L22.5588 3.62784Z" fill="black"/>
<path d="M24.3364 5.95482L24.5039 3.59229L25.436 3.65835C25.6144 3.671 25.7644 3.71371 25.886 3.78648C26.0085 3.85854 26.0986 3.95497 26.1565 4.07579C26.2153 4.19589 26.2391 4.334 26.228 4.49012C26.2169 4.647 26.1735 4.77957 26.0978 4.88783C26.0222 4.99531 25.918 5.0745 25.7853 5.12538C25.6534 5.17632 25.4967 5.19535 25.3152 5.18249L24.6911 5.13825L24.7196 4.73681L25.2629 4.77532C25.3583 4.78208 25.4384 4.77462 25.5033 4.75294C25.5683 4.73126 25.6179 4.69537 25.6524 4.64525C25.6877 4.59519 25.708 4.53132 25.7135 4.45365C25.7191 4.37521 25.708 4.30795 25.6803 4.25188C25.6534 4.19587 25.6089 4.15175 25.5471 4.11954C25.486 4.08662 25.4074 4.06675 25.3113 4.05993L24.9745 4.03606L24.8359 5.99023L24.3364 5.95482ZM25.6885 4.97012L26.1995 6.08688L25.6481 6.04779L25.1498 4.93193L25.6885 4.97012Z" fill="black"/>
<path d="M27.6361 3.95122L27.234 6.28531L26.7405 6.2003L27.1426 3.86621L27.6361 3.95122Z" fill="black"/>
<path d="M28.36 4.51248L28.4707 4.11475L30.3446 4.63645L30.2339 5.03418L29.5354 4.83971L29.0109 6.72366L28.534 6.59091L29.0585 4.70696L28.36 4.51248Z" fill="black"/>
<path d="M30.8809 4.81104L31.394 5.03748L31.4763 6.18872L31.4975 6.19805L32.4034 5.48291L32.9165 5.70936L31.508 6.76142L31.1699 7.52744L30.715 7.32667L31.053 6.56065L30.8809 4.81104Z" fill="black"/>
<path d="M35.0703 6.90869L35.5618 7.28258L35.1175 8.944L35.1396 8.9608L36.6222 8.08916L37.1137 8.46305L35.6798 10.3481L35.2932 10.054L36.2265 8.8271L36.2108 8.81519L34.7967 9.66185L34.5335 9.46161L34.9754 7.86818L34.9598 7.85627L34.023 9.08783L33.6364 8.79376L35.0703 6.90869Z" fill="black"/>
<path d="M36.4931 11.1095L36.1253 10.7189L38.4101 9.69048L38.8525 10.1603L37.6879 12.3784L37.32 11.9877L38.2436 10.3032L38.2309 10.2897L36.4931 11.1095ZM37.1479 10.4469L38.0168 11.3697L37.7323 11.6377L36.8633 10.7149L37.1479 10.4469Z" fill="black"/>
<path d="M41.1698 13.1331L39.2203 14.478L38.9747 14.122L39.6166 12.4273L39.6067 12.4131L38.3797 13.2595L38.0953 12.8473L40.0449 11.5024L40.2945 11.8642L39.6489 13.5515L39.6607 13.5687L40.8868 12.7228L41.1698 13.1331Z" fill="black"/>
<path d="M39.8293 15.5261L39.5952 15.0432L42.0832 14.746L42.3646 15.3267L40.5894 17.0944L40.3553 16.6116L41.7409 15.2808L41.7328 15.2641L39.8293 15.5261ZM40.6524 15.0899L41.2052 16.2305L40.8534 16.401L40.3006 15.2604L40.6524 15.0899Z" fill="black"/>
<path d="M42.8194 18.6576C42.8683 18.6254 42.9091 18.589 42.9416 18.5482C42.9749 18.5072 42.9996 18.462 43.0158 18.4125C43.0329 18.3636 43.0412 18.311 43.0406 18.2547C43.0403 18.1991 43.0306 18.1403 43.0114 18.0785C42.9755 17.9629 42.9152 17.8702 42.8306 17.8004C42.7462 17.7313 42.6416 17.6895 42.5168 17.675C42.3927 17.6602 42.2519 17.6773 42.0943 17.7262C41.9368 17.7751 41.8102 17.8407 41.7146 17.9228C41.619 18.005 41.5557 18.0989 41.5248 18.2046C41.4945 18.31 41.4979 18.4224 41.5349 18.5417C41.5685 18.6499 41.6164 18.7364 41.6784 18.8011C41.7415 18.8663 41.8146 18.9081 41.8979 18.9267C41.9814 18.946 42.0713 18.9407 42.1678 18.9107L42.1836 19.0124L42.0026 18.4292L42.3626 18.3174L42.6565 19.264L42.3715 19.3524C42.1727 19.4141 41.9888 19.4252 41.8199 19.3856C41.6518 19.3458 41.5062 19.2642 41.3831 19.141C41.2609 19.0175 41.1702 18.8608 41.1112 18.6708C41.0454 18.4587 41.0343 18.2579 41.078 18.0684C41.1224 17.8786 41.2172 17.7119 41.3624 17.5684C41.5085 17.4253 41.7008 17.3168 41.9394 17.2427C42.1227 17.1858 42.2944 17.1616 42.4545 17.17C42.6155 17.179 42.761 17.2161 42.8911 17.2815C43.0212 17.3469 43.1323 17.4355 43.2243 17.5474C43.3164 17.6593 43.3856 17.79 43.432 17.9394C43.4718 18.0676 43.49 18.1927 43.4867 18.3148C43.4842 18.4367 43.4623 18.5508 43.4211 18.6573C43.3801 18.7644 43.3213 18.8598 43.2447 18.9433C43.1689 19.0266 43.0774 19.0933 42.9703 19.1435L42.8194 18.6576Z" fill="black"/>
<path d="M41.6511 20.586L43.9883 20.2021L44.2469 21.777L43.8395 21.8439L43.662 20.7632L43.1051 20.8547L43.2693 21.8543L42.8619 21.9213L42.6977 20.9216L42.1397 21.0132L42.3179 22.0985L41.9105 22.1654L41.6511 20.586Z" fill="black"/>
<path d="M44.3672 22.7124L44.3688 23.33L42.7791 23.9863L42.7792 24.0141L44.3722 24.6622L44.3738 25.2798L42.0053 25.2859L42.0041 24.8001L43.5457 24.7962L43.5456 24.7765L42.014 24.1675L42.0132 23.8368L43.5474 23.2199L43.5473 23.2002L42 23.2042L41.9987 22.7185L44.3672 22.7124Z" fill="black"/>
<path d="M41.8809 26.4164L44.2207 26.7837L43.9732 28.3603L43.5653 28.2963L43.7352 27.2144L43.1776 27.1268L43.0205 28.1276L42.6127 28.0636L42.7698 27.0628L42.2111 26.9751L42.0405 28.0616L41.6327 27.9975L41.8809 26.4164Z" fill="black"/>
<path d="M43.2271 31.0281L40.963 30.3329L41.0899 29.9194L42.8174 29.3719L42.8225 29.3553L41.3975 28.9178L41.5444 28.4391L43.8086 29.1343L43.6796 29.5544L41.9556 30.0945L41.9495 30.1144L43.3734 30.5516L43.2271 31.0281Z" fill="black"/>
<path d="M42.4075 32.0151L42.7812 32.1904L41.9553 33.9516L41.5815 33.7763L41.8894 33.1198L40.1188 32.2894L40.329 31.8412L42.0996 32.6716L42.4075 32.0151Z" fill="black"/>
</g>
<defs>
<clipPath id="clip0_8298_19773">
<rect width="48" height="48" rx="24" fill="white"/>
</clipPath>
<clipPath id="clip1_8298_19773">
<path d="M11.5 24C11.5 17.3726 16.8726 12 23.5 12H24.5C31.1274 12 36.5 17.3726 36.5 24V27H11.5V24Z" fill="white"/>
</clipPath>
</defs>
</svg>
