<svg width="22" height="22" viewBox="0 0 22 22" fill="none" xmlns="http://www.w3.org/2000/svg">
<path fill-rule="evenodd" clip-rule="evenodd" d="M19.7212 0.128577C19.9917 0.0147289 20.2877 -0.0245364 20.5786 0.0148671C20.8694 0.0542706 21.1443 0.170903 21.3748 0.352624C21.6052 0.534345 21.7827 0.774511 21.8889 1.04813C21.995 1.32174 22.0259 1.6188 21.9782 1.90839L19.4957 16.9667C19.2549 18.4192 17.6611 19.2522 16.329 18.5287C15.2147 17.9234 13.5597 16.9908 12.0711 16.0177C11.3267 15.5306 9.04669 13.9708 9.32691 12.8609C9.56772 11.9119 13.3988 8.34569 15.588 6.22546C16.4472 5.39248 16.0554 4.91195 15.0407 5.67817C12.5209 7.58057 8.47532 10.4736 7.13772 11.288C5.95775 12.006 5.34259 12.1286 4.60702 12.006C3.26505 11.7827 2.0205 11.4368 1.00471 11.0154C-0.367906 10.4462 -0.301136 8.55914 1.00362 8.00965L19.7212 0.128577Z" fill="#F8F8F8"/>
</svg>
